<?xml version="1.0" encoding="utf-8"?>
<!-- Generator: Adobe Illustrator 18.0.0, SVG Export Plug-In . SVG Version: 6.00 Build 0)  -->
<!DOCTYPE svg PUBLIC "-//W3C//DTD SVG 1.1//EN" "http://www.w3.org/Graphics/SVG/1.1/DTD/svg11.dtd">
<svg version="1.1" id="Layer_1" xmlns="http://www.w3.org/2000/svg" xmlns:xlink="http://www.w3.org/1999/xlink" x="0px" y="0px"
	 viewBox="0 0 792 612" enable-background="new 0 0 792 612" xml:space="preserve">
<rect fill="#A7A9AC" stroke="#000000" stroke-width="5" stroke-linecap="round" stroke-linejoin="round" stroke-miterlimit="10" width="792" height="612"/>
<path fill="none" stroke="#000000" stroke-width="5" stroke-linecap="round" stroke-linejoin="round" stroke-miterlimit="10" d="
	M326.5,398.8"/>
<path fill="none" stroke="#000000" stroke-width="5" stroke-linecap="round" stroke-linejoin="round" stroke-miterlimit="10" d="
	M558.2,398.8"/>
<g>
	<path fill="none" stroke="#FFFFFF" stroke-width="5" stroke-linecap="round" stroke-linejoin="round" stroke-miterlimit="10" d="
		M650.6,398.8h-46.4c-15.1,0-30.2-1.9-44.9-5.6C524.4,384.4,468,367.4,468,288c0-59.2,34.9-92.7,72.6-92.7
		c37.8,0,72.6,33.5,72.6,92.7c0,77-53,95.3-88,104.4c-16.6,4.3-33.7,6.4-50.9,6.4h-73.6c-20.3,0-53.1-13-59.5-32.3
		c-7-21.2-14-48.8-15.7-73.7c-3.6-51.6,4.9-106,16.2-106l0,0c11.2,0,19.8,54.4,16.2,106c-1.9,27.6-11.2,58.6-19.7,80.5
		c-5.9,15.4-27.8,25.5-44.4,25.5l-86.7,0c-25.5,0-36.3-16.6-36.3-37V186.3"/>
	
		<line fill="none" stroke="#FFFFFF" stroke-width="5" stroke-linecap="round" stroke-linejoin="round" stroke-miterlimit="10" x1="295.1" y1="143.8" x2="387.9" y2="143.8"/>
</g>
<path fill="none" stroke="#000000" stroke-width="5" stroke-linejoin="round" stroke-miterlimit="10" d="M87,186.3"/>
<path fill="none" stroke="#000000" stroke-width="5" stroke-linecap="round" stroke-linejoin="round" stroke-miterlimit="10" d="
	M341.6,186.8"/>
</svg>
